<?xml version="1.0" encoding="UTF-8"?>
<svg width="16" height="16" preserveAspectRatio="xMidYMid" version="1.1" viewBox="-.03 -.03 1.2888 1.2888"
     xmlns="http://www.w3.org/2000/svg">
  <path
      d="m0.75055 0.82782h0.11672l-0.18633-0.48359h-0.12906l-0.18633 0.48359h0.11673l0.030451-0.081915h0.17606l-0.03187-0.090643h-0.11592l0.075408-0.20808zm0.38491-0.35804a0.028055 0.028055 0 0 0-0.034578-0.019547 0.028085 0.028085 0 0 0-0.019552 0.03457 0.48433 0.48433 0 0 1 0.017651 0.12959c0 0.2672-0.21738 0.48457-0.48457 0.48457-0.2672 0-0.48457-0.21737-0.48457-0.48457 0-0.2672 0.21738-0.48458 0.48457-0.48458 0.11319 0 0.22271 0.04021 0.30915 0.11177a0.067331 0.067331 0 0 0-0.005228 0.026078c0 0.037324 0.030256 0.067581 0.06758 0.067581 0.037324 0 0.067581-0.030256 0.067581-0.067581 0-0.037324-0.030256-0.067581-0.067581-0.067581-0.00718 0-0.014102 0.001145-0.020599 0.003225-0.097336-0.082951-0.222-0.12966-0.3509-0.12966-0.29817 0-0.54074 0.24258-0.54074 0.54075 0 0.29817 0.24258 0.54074 0.54074 0.54074 0.29817 0 0.54074-0.24258 0.54074-0.54074a0.54053 0.54054 0 0 0-0.01969-0.14462z"
      fill="#CED0D6" stroke="#CED0D6" stroke-width=".046211" />
</svg>
