<?xml version="1.0" encoding="UTF-8"?>
<svg width="16" height="16" version="1.1" viewBox="0 0 12 12" xmlns="http://www.w3.org/2000/svg"
>
  <g transform="matrix(.875 0 0 .875 .75 1.6134)" fill="#CED0D6">
    <path
        d="m11.115 1.368c-0.26713 0-0.48327-0.21652-0.48327-0.48327 0-0.26713 0.21614-0.48327 0.48327-0.48327 0.26675 0 0.48328 0.21614 0.48328 0.48327 0 0.26675-0.21652 0.48327-0.48328 0.48327m-4.7996 8.2571c-0.26713 0-0.48327-0.21652-0.48327-0.48327 0-0.26713 0.21614-0.48327 0.48327-0.48327 0.26675 0 0.48289 0.21614 0.48289 0.48327 0 0.26675-0.21614 0.48327-0.48289 0.48327m4.7996-9.6251c-0.4886 0-0.88473 0.39613-0.88473 0.88473 0 0.10426 0.02626 0.2013 0.05936 0.29415l-4.1504 7.1136c-0.40108 0.084098-0.70855 0.42315-0.70855 0.84934 0 0.4886 0.39613 0.88473 0.88473 0.88473 0.48822 0 0.88435-0.39613 0.88435-0.88473 0-0.098177-0.026258-0.18798-0.055557-0.27626l4.1714-7.1368c0.3889-0.09323 0.68419-0.42657 0.68419-0.84401 0-0.4886-0.39613-0.88473-0.88473-0.88473" />
    <path
        d="m7.4953 1.368c-0.26713 0-0.48327-0.21652-0.48327-0.48327 0-0.26713 0.21614-0.48327 0.48327-0.48327 0.26675 0 0.48289 0.21614 0.48289 0.48327 0 0.26675-0.21614 0.48327-0.48289 0.48327m-4.8 8.2571c-0.26675 0-0.48327-0.21652-0.48327-0.48327 0-0.26713 0.21652-0.48327 0.48327-0.48327 0.26713 0 0.48327 0.21614 0.48327 0.48327 0 0.26675-0.21614 0.48327-0.48327 0.48327m4.8-9.6251c-0.48898 0-0.88473 0.39613-0.88473 0.88473 0 0.10426 0.026258 0.2013 0.059364 0.29415l-4.1504 7.1136c-0.40146 0.084098-0.70893 0.42315-0.70893 0.84934 0 0.4886 0.39613 0.88473 0.88473 0.88473 0.4886 0 0.88473-0.39613 0.88473-0.88473 0-0.098177-0.026258-0.18798-0.055557-0.27626l4.1714-7.1368c0.3889-0.09323 0.68419-0.42657 0.68419-0.84401 0-0.4886-0.39651-0.88473-0.88473-0.88473" />
    <path
        d="m0.88473 2.8471c0.26675 0 0.48327 0.21652 0.48327 0.48327 0 0.26675-0.21652 0.48327-0.48327 0.48327-0.26713 0-0.48327-0.21652-0.48327-0.48327 0-0.26675 0.21614-0.48327 0.48327-0.48327m0 1.368c0.4886 0 0.88473-0.39613 0.88473-0.88473 0-0.097797-0.026637-0.18798-0.055937-0.27626-0.1172-0.35123-0.43837-0.60847-0.82879-0.60847-0.062408 0-0.1172 0.023212-0.17619 0.035768-0.40108 0.083718-0.70855 0.42277-0.70855 0.84896 0 0.4886 0.39613 0.88473 0.88473 0.88473" />
    <path
        d="m0.40146 6.4218c0-0.26713 0.21652-0.48327 0.48327-0.48327 0.26675 0 0.48327 0.21614 0.48327 0.48327 0 0.26675-0.21652 0.48289-0.48327 0.48289-0.26675 0-0.48327-0.21614-0.48327-0.48289m1.368 0c0-0.098176-0.026637-0.18798-0.055937-0.27626-0.1172-0.35123-0.43799-0.60847-0.82879-0.60847-0.062408 0-0.1172 0.02321-0.17619 0.03539-0.40108 0.084096-0.70855 0.42315-0.70855 0.84934 0 0.48822 0.39613 0.88473 0.88473 0.88473 0.4886 0 0.88473-0.39651 0.88473-0.88473" />
  </g>
</svg>
