<?xml version="1.0" encoding="UTF-8" standalone="no"?>
<!-- Copyright 2000-2022 JetBrains s.r.o. and contributors. Use of this source code is governed by the Apache 2.0 license. -->

<svg
    width="16"
    height="16"
    viewBox="0 0 16 16"
    fill="none"
    version="1.1"
    id="svg2"
    sodipodi:docname="node-graphql_dark.svg"
    inkscape:version="1.4 (e7c3feb1, 2024-10-09)"
    xmlns:inkscape="http://www.inkscape.org/namespaces/inkscape"
    xmlns:sodipodi="http://sodipodi.sourceforge.net/DTD/sodipodi-0.dtd"
    xmlns="http://www.w3.org/2000/svg"
>
  <defs
      id="defs2" />
  <sodipodi:namedview
      id="namedview2"
      pagecolor="#ffffff"
      bordercolor="#000000"
      borderopacity="0.25"
      inkscape:showpageshadow="2"
      inkscape:pageopacity="0.0"
      inkscape:pagecheckerboard="0"
      inkscape:deskcolor="#d1d1d1"
      inkscape:zoom="44.44097"
      inkscape:cx="4.297836"
      inkscape:cy="11.363388"
      inkscape:window-width="1920"
      inkscape:window-height="1027"
      inkscape:window-x="0"
      inkscape:window-y="25"
      inkscape:window-maximized="1"
      inkscape:current-layer="svg2" />
  <path
      fill-rule="evenodd"
      clip-rule="evenodd"
      d="M1 3.86667C1 2.83574 1.7835 2 2.75 2H6.03823C6.29871 2 6.5489 2.10163 6.73559 2.28327L8.5 4L13 4C14.1046 4 15 4.89543 15 6V8.17071C14.6872 8.06015 14.3506 8 14 8H11C9.34315 8 8 9.34315 8 11V14H2.75C1.7835 14 1 13.1643 1 12.1333V3.86667Z"
      fill="#43454A"
      id="path1" />
  <path
      fill-rule="evenodd"
      clip-rule="evenodd"
      d="M7.80265 4.71673L8.09379 5H8.5H13C13.5523 5 14 5.44772 14 6V8C14.3506 8 14.6872 8.06015 15 8.17071V6C15 4.89543 14.1046 4 13 4L8.5 4L6.73559 2.28327C6.5489 2.10163 6.29871 2 6.03823 2H2.75C1.7835 2 1 2.83574 1 3.86667V12.1333C1 13.1643 1.7835 14 2.75 14H8V13H2.75C2.3956 13 2 12.6738 2 12.1333V3.86667C2 3.32624 2.3956 3 2.75 3H6.03823L7.80265 4.71673Z"
      fill="#CED0D6"
      id="path2" />
  <g
      fill="#ff31ca"
      fill-rule="evenodd"
      transform="matrix(0.43600045,0,0,0.43600045,9.5804643,9.2299966)"
      id="g4"
      style="stroke:#ff31ca;stroke-width:1.07034;stroke-dasharray:none;stroke-opacity:1">
    <polygon
        points="0.692,11.111 6.82,0.497 7.371,0.814 1.242,11.428 "
        id="polygon1"
        style="stroke:#ff31ca;stroke-width:1.07034;stroke-dasharray:none;stroke-opacity:1" />
    <polygon
        points="12.823,10.263 12.823,10.898 0.566,10.898 0.566,10.263 "
        id="polygon2"
        style="stroke:#ff31ca;stroke-width:1.07034;stroke-dasharray:none;stroke-opacity:1" />
    <path
        d="M 6.9393367,14.159158 0.80885204,10.619617 1.1264541,10.069515 7.2569388,13.609056 Z M 12.264872,4.9341964 6.1343878,1.3946556 6.4519898,0.84455357 12.582475,4.3840944 Z"
        id="path2-1"
        style="stroke:#ff31ca;stroke-width:1.07034;stroke-dasharray:none;stroke-opacity:1" />
    <polygon
        points="0.811,4.382 6.941,0.842 7.259,1.392 1.128,4.932 "
        id="polygon3"
        style="stroke:#ff31ca;stroke-width:1.07034;stroke-dasharray:none;stroke-opacity:1" />
    <path
        d="M 12.151837,11.428431 6.023648,0.81440051 6.57375,0.49679847 12.701939,11.110829 Z M 1.0522959,3.9604592 H 1.6875 V 11.039541 H 1.0522959 Z m 10.6530611,0 h 0.635204 v 7.0790818 h -0.635204 z"
        id="path3"
        style="stroke:#ff31ca;stroke-width:1.07034;stroke-dasharray:none;stroke-opacity:1" />
    <polygon
        points="6.554,13.41 11.886,10.331 12.163,10.812 6.831,13.89 "
        id="polygon4"
        style="stroke:#ff31ca;stroke-width:1.07034;stroke-dasharray:none;stroke-opacity:1" />
    <path
        d="m 13.182398,11.246173 c -0.367347,0.639031 -1.186225,0.857143 -1.825255,0.489796 C 10.718112,11.368622 10.5,10.549745 10.867347,9.9107143 c 0.367347,-0.6390306 1.186224,-0.8571429 1.825255,-0.4897959 0.642857,0.3711734 0.860969,1.1862246 0.489796,1.8252546 M 2.5216837,5.0892857 C 2.1543367,5.7283163 1.3354592,5.9464286 0.69642857,5.5790816 0.05739796,5.2117347 -0.16071429,4.3928571 0.20663265,3.7538265 0.57397959,3.1147959 1.3928571,2.8966837 2.0318878,3.2640306 2.6709184,3.6352041 2.8890306,4.4502551 2.5216837,5.0892857 M 0.21045918,11.246173 C -0.15688775,10.607143 0.06122449,9.7920918 0.7002551,9.4209184 1.3392857,9.0535714 2.1543367,9.2716837 2.5255102,9.9107143 2.8928571,10.549745 2.6747449,11.364796 2.0357143,11.735969 1.3928571,12.103316 0.57780612,11.885204 0.21045918,11.246173 M 10.871173,5.0892857 C 10.503827,4.4502551 10.721939,3.6352041 11.360969,3.2640306 12,2.8966837 12.815051,3.1147959 13.186225,3.7538265 13.553571,4.3928571 13.335459,5.2079082 12.696429,5.5790816 12.057398,5.9464286 11.23852,5.7283163 10.871173,5.0892857 M 6.6964286,14.992347 c -0.7385204,0 -1.3354592,-0.596939 -1.3354592,-1.335459 0,-0.738521 0.5969388,-1.335459 1.3354592,-1.335459 0.7385204,0 1.3354592,0.596938 1.3354592,1.335459 0,0.734694 -0.5969388,1.335459 -1.3354592,1.335459 m 0,-12.3137756 c -0.7385204,0 -1.3354592,-0.5969387 -1.3354592,-1.3354592 0,-0.73852036 0.5969388,-1.33545914 1.3354592,-1.33545914 0.7385204,0 1.3354592,0.59693878 1.3354592,1.33545914 0,0.7385205 -0.5969388,1.3354592 -1.3354592,1.3354592"
        id="path4"
        style="stroke:#ff31ca;stroke-width:1.07034;stroke-dasharray:none;stroke-opacity:1" />
  </g>
</svg>
